<?xml version="1.0" encoding="utf-8"?>
<!-- Generator: Adobe Illustrator 27.2.0, SVG Export Plug-In . SVG Version: 6.00 Build 0)  -->
<svg version="1.1" id="Layer_1" xmlns="http://www.w3.org/2000/svg" xmlns:xlink="http://www.w3.org/1999/xlink" x="0px" y="0px"
	 viewBox="0 0 404.24 451.79" style="enable-background:new 0 0 404.24 451.79;" xml:space="preserve">
<style type="text/css">
	.st0{fill:#FFFFFF;}
</style>
<g>
	<path d="M197.1,166.97c-0.52-4.91,0.07-10.29-1.75-14.67c-11.92-28.7-24.61-57.09-36.54-85.79c-5.84-14.05-10.9-28.44-15.69-42.89
		c-1.2-3.62-0.52-8.14,0.24-12.07c1.94-9.96,10.19-14.61,18.95-9.38c6.5,3.89,13.1,9.7,16.53,16.28
		c17.66,33.83,34.5,68.09,51.2,102.42c4.61,9.47,9.05,18.62,18.39,24.42c8.1,5.03,14.08,4.31,18.03-4.43
		c3.4-7.54,6.25-16.07,6.39-24.2c0.37-22.09-1.07-44.21-1.24-66.32c-0.05-6.15,1.14-12.54,3-18.42
		c3.53-11.17,11.57-12.57,19.56-3.92c9.71,10.51,11.55,24.01,13.02,37.21c2.37,21.43,3.53,42.99,5.35,64.49
		c0.36,4.3,1.41,8.55,2.23,13.32c-8.56,2.39-14.08,8.17-15.29,18.11c-8.67-4.33-16.75-5.05-23.77,1.85
		c-6.14,6.03-5.47,13.13-1.87,20.84c-10.21-0.35-18.31,2.53-21.2,12.87c-2.3,8.24,2.55,13.36,9.75,17.93
		c-8.68,3.67-14.86,9.08-13.46,18.78c1.29,8.92,8.23,12.08,16.87,13.18c-4.42,7.44-6.97,14.6-0.87,21.56
		c5.94,6.78,13.42,6.19,21.87,3.22c-1.5,9.4,0.52,16.94,10.07,20.33c9.35,3.32,15.72-1.39,21.48-8.57
		c3.03,8.45,7.95,13.85,17.4,13.38c9.42-0.47,13.95-6.36,16.55-13.84c12.81,2.38,18.71,12.78,25.42,22.09
		c8.77,12.19,17.34,24.55,25.53,37.13c1.3,2,1.35,6.37,0.03,8.29c-22.67,32.81-45.71,65.37-68.49,98.1
		c-2.75,3.95-5.52,4.08-9.73,2.86c-31.93-9.27-63.61-19.75-96-27.01c-34.01-7.62-68.72-12.21-103.17-17.82
		c-9.42-1.53-19.01-2.05-28.54-2.83c-13.61-1.12-27.11-2.24-40.6,2.18c-7.77,2.55-15.72,0.96-22.35-4.63
		c-9.75-8.22-10.22-20.64-0.74-29.07c11.06-9.83,24.4-14.2,38.96-15.07c26.47-1.58,52.96-3.01,79.44-4.54
		c8.17-0.47,10.02-2.44,6.76-10.11c-4.35-10.24-8.65-20.98-15.4-29.61c-20.17-25.81-41.4-50.8-62.45-75.91
		c-19.82-23.64-40.69-46.44-59.59-70.79c-8.5-10.95-14.39-24.33-19.49-37.38c-4.31-11.04-0.81-19.62,6.39-24.06
		c9.33-5.75,20.02-5.12,28.34,3.84c22.7,24.42,44.65,49.53,67.06,74.22c9.54,10.51,18.89,21.31,29.47,30.69
		c4.55,4.04,12.02,4.79,18.16,7.03c0.64-6,2.93-12.4,1.56-17.9c-2.33-9.38-6.3-18.52-10.74-27.17
		c-18.8-36.66-38.28-72.98-56.9-109.73c-3.99-7.88-6.06-16.9-7.94-25.63c-1.38-6.44,0.86-12.55,6.81-16.42
		c5.79-3.77,12.15-2.75,16.93,0.92c5.46,4.2,10.55,9.52,14.18,15.37c25.9,41.75,51.38,83.74,76.96,125.69
		c0.58,0.94,0.65,2.19,0.96,3.3C194.45,168.1,195.78,167.53,197.1,166.97z"/>
</g>
</svg>
