<?xml version="1.0" encoding="utf-8"?>
<!-- Generator: Adobe Illustrator 27.2.0, SVG Export Plug-In . SVG Version: 6.00 Build 0)  -->
<svg version="1.1" id="Layer_1" xmlns="http://www.w3.org/2000/svg" xmlns:xlink="http://www.w3.org/1999/xlink" x="0px" y="0px"
	 viewBox="0 0 554.78 461.63" style="enable-background:new 0 0 554.78 461.63;" xml:space="preserve">
<style type="text/css">
	.st0{fill:#FFFFFF;}
</style>
<g>
	<path d="M139.45,6.03c-6.13,11.05-12.47,20.66-17.05,31.04c-20.84,47.17-12.11,91.08,15.77,132.57c1.04,1.55,2.43,3.01,3.96,4.07
		c50.6,34.87,100.94,70.16,155.86,98.17c5.99,3.06,12.37,5.37,19.72,6.53c-4.55-5-9.1-10-14.32-15.74c2.31-0.52,3.75-1.18,5.14-1.11
		c27.53,1.48,55.09,2.66,82.58,4.74c13.03,0.99,22.46,8.65,27.08,20.86c3.33,8.81,8.77,13.35,18.06,15.13
		c10.61,2.03,20.93,5.6,32.05,8.69c-10.04,16.74-21.48,30.3-41.17,34.42c-3.86,0.81-7.32,3.53-11.43,5.6
		c-5.59-7.57-13.17,0.12-20.43-0.43c10.33,6.35,19.31,15.26,32.91,16.49c1.33,1.86,3.42,4.8,5.88,8.24
		c-4.63,7.42-10.34,11.93-21.23,11.08c-31.61-2.46-63.33-3.48-95.01-5c-4.34-0.21-8.71-0.03-14.9-0.03c2.71,2.59,4.4,4.39,6.28,5.98
		c13.78,11.63,27.49,23.36,41.51,34.7c2.44,1.98,6.19,2.74,9.46,3.22c7.22,1.07,14.87,0.49,21.71,2.62
		c11.58,3.61,17.37,14.35,16.16,28.26c-24.96-2.73-50.39,5.05-74.9-8.99c-24.8-14.2-51.92-24.31-76.94-38.16
		c-17.58-9.73-33.45-22.59-49.93-34.28c-33.21-23.54-66.3-47.24-99.46-70.86c-2.63-1.87-5.37-3.6-8.38-5.61
		c-21.53,42.78-41.29,85.2-14.75,132.94c26.75-2.62,38.19,10.01,40.53,30.42c-20.25,0-40.41,0.11-60.56-0.21
		c-1.66-0.03-3.81-2.71-4.84-4.64c-15.09-28.15-30.07-56.37-44.99-84.61c-4.14-7.83-4.99-15.96-2.19-24.57
		c11.13-34.23,21.77-68.63,33.24-102.75c10.06-29.9,30.54-49.82,60.57-59.82c2.55-0.85,5.01-1.95,6.4-2.5
		c-6.4-16.95-14.14-33.06-18.58-50.03C70.15,82.35,84.29,39.44,120.52,3.12C128.52-4.89,132.78,4.93,139.45,6.03z"/>
	<path d="M88.76,305.96c9.13,6.68,15.91,11.64,21.63,15.82c-7.31,17.02-14.38,33.17-21.14,49.46c-1.33,3.21-1.79,6.89-2.1,10.4
		c-0.79,8.82,1.73,11.59,10.49,12.12c13.14,0.79,20.71,6.63,24.78,19.99c-16.26,0-32.19,0.13-48.11-0.23
		c-1.41-0.03-3.35-3.15-4.01-5.17c-4.43-13.74-6.59-28.19-2.65-41.96C73.37,346.39,81.29,327.01,88.76,305.96z"/>
	<path d="M492.72,287.11c-2.36-3.51-4.12-6.13-6.51-9.69c20.67-13.79,40.9-27.28,61.81-41.23c2.26,3.19,4.24,5.98,6.77,9.54
		C534.21,259.45,513.97,272.95,492.72,287.11z"/>
	<path d="M486.26,391.35c2.35-3.53,4.24-6.36,6.49-9.73c20.96,13.96,41.28,27.49,62,41.29c-2.31,3.38-4.24,6.22-6.58,9.65
		C527.32,418.68,507.06,405.2,486.26,391.35z"/>
	<path d="M489.61,339.52c0-3.62,0-6.76,0-10.51c18.14,0,36.22,0,54.9,0c0,3.33,0,6.67,0,10.51
		C526.22,339.52,508.15,339.52,489.61,339.52z"/>
</g>
</svg>
