<?xml version="1.0" encoding="utf-8"?>
<!-- Generator: Adobe Illustrator 27.2.0, SVG Export Plug-In . SVG Version: 6.00 Build 0)  -->
<svg version="1.1" id="Layer_1" xmlns="http://www.w3.org/2000/svg" xmlns:xlink="http://www.w3.org/1999/xlink" x="0px" y="0px"
	 viewBox="0 0 483.25 446.38" style="enable-background:new 0 0 483.25 446.38;" xml:space="preserve">
<style type="text/css">
	.st0{fill:#FFFFFF;}
</style>
<g>
	<path d="M133.67,283.75c-0.51,22.5,4.53,43.49,15.99,62.54c23.04,38.31,57.13,58.37,102.02,59.34c22.14,0.48,44.36,1.12,65.4-7.81
		c46.06-19.55,71.37-54.46,75.42-104.09c1.51-18.47,0.09-37.17,0.53-55.75c0.14-5.82-3.64-6.38-7.34-7.97
		c-46.82-20.24-58.64-80.47-22.92-116.64c19.94-20.19,50.03-26.35,76.45-15.66c26.21,10.61,43.89,36.87,44.02,65.38
		c0.13,29.51-16.62,55.98-43.26,66.6c-6.37,2.54-7.75,5.67-7.79,11.92c-0.14,22.38,0.48,44.9-1.73,67.11
		c-6.59,66.21-63.09,125.51-129.14,134.37c-38.31,5.14-77.12,6.11-113.46-11.21c-53.07-25.3-84.01-67.15-92.23-125.52
		c-0.53-3.78-1.11-7.58-1.36-11.39c-0.23-3.52-0.05-7.07-0.05-11.12c-5.48-0.91-10.52-1.63-15.5-2.61
		c-44.72-8.77-77.55-47.02-78.33-92.41c-0.58-33.89-0.59-67.81,0.16-101.7c0.82-37.4,30.87-75.4,66.7-85.98
		c10.24-3.02,19.29,0.3,24.02,8.81c4.88,8.78,3.14,18.78-4.64,25.11c-2.07,1.68-4.63,2.86-7.13,3.88
		C52.84,49.85,39.75,69.01,39.68,97.69c-0.07,28.71-0.14,57.42,0.02,86.12c0.19,35.25,24.76,59.49,60.09,59.53
		c10.94,0.01,21.88,0.11,32.82-0.03c27.48-0.35,53.53-22.75,54.79-50.09c1.58-34.09,1.54-68.32,0.44-102.44
		c-0.81-25.03-15.11-41.93-38.29-51.26C138.53,35.1,132.5,26.45,134,17.34c2.16-13.09,14.11-20.62,26.96-15.95
		c38.13,13.85,62,41.27,65.58,81.29c3.27,36.6,2.88,73.83,0.54,110.56c-3.17,49.7-39.91,84.72-89.55,89.65
		C136.48,283,135.46,283.34,133.67,283.75z M381.46,163.77c-0.15,17.18,13.75,31.56,30.75,31.82c17.03,0.26,31.3-13.72,31.58-30.94
		c0.29-17.78-13.63-32.23-31.09-32.29C395.79,132.3,381.61,146.57,381.46,163.77z"/>
</g>
</svg>
