<?xml version="1.0" encoding="utf-8"?>
<!-- Generator: Adobe Illustrator 27.2.0, SVG Export Plug-In . SVG Version: 6.00 Build 0)  -->
<svg version="1.1" id="Layer_1" xmlns="http://www.w3.org/2000/svg" xmlns:xlink="http://www.w3.org/1999/xlink" x="0px" y="0px"
	 viewBox="0 0 357.7 357.81" style="enable-background:new 0 0 357.7 357.81;" xml:space="preserve">
<style type="text/css">
	.st0{fill:#FFFFFF;}
</style>
<g>
	<path d="M0,178.64C0.14,79.7,80.14-0.15,178.97,0c99.19,0.15,179.05,80.31,178.73,179.4c-0.32,98.97-80.44,178.73-179.23,178.42
		C79.46,357.5-0.14,277.58,0,178.64z M76.93,208.9c15.89,15.26,32.68,31.15,49.2,47.32c11.5,11.24,21.14,11.67,32.79,0.67
		c42.94-40.54,85.86-81.12,128.77-121.7c0.91-0.86,1.68-1.85,2.63-2.9c-8.93-9.32-17.63-18.4-26.51-27.67
		c-40.24,38.06-80.09,75.74-120.31,113.77c-13.19-12.98-26.07-25.64-39.3-38.66C95.82,188.69,87.21,197.91,76.93,208.9z"/>
</g>
</svg>
