<?xml version="1.0" encoding="utf-8"?>
<!-- Generator: Adobe Illustrator 27.2.0, SVG Export Plug-In . SVG Version: 6.00 Build 0)  -->
<svg version="1.1" id="Layer_1" xmlns="http://www.w3.org/2000/svg" xmlns:xlink="http://www.w3.org/1999/xlink" x="0px" y="0px"
	 viewBox="0 0 485.18 529.31" style="enable-background:new 0 0 485.18 529.31;" xml:space="preserve">
<style type="text/css">
	.st0{fill:#FFFFFF;}
</style>
<g>
	<path d="M352.07,504.31c0,8.66,0,16.59,0,24.92c-14.25,0-28.09,0-42.44,0c0-8.14,0-16.21,0-24.6c-44.81,0-89.13,0-133.94,0
		c0,8.23,0,16.3,0,24.68c-14.23,0-27.96,0-42.27,0c0-8.03,0-16.08,0-24.55c-5.93-0.37-11.38-0.34-16.71-1.11
		c-28.25-4.06-48.72-24.1-53.81-51.97c-7.21-39.52-14.67-78.99-21.93-118.49c-0.53-2.88-1.78-3.84-4.65-3.76
		c-6.32,0.17-12.64,0.12-18.97,0.03c-11.01-0.15-17.32-6.51-17.34-17.4c-0.02-11.65-0.03-23.3,0-34.95
		c0.03-10.23,6.46-16.79,16.75-16.99c6.32-0.12,12.65-0.24,18.96,0.05c3.65,0.17,4.72-1.22,5.35-4.65
		c7.06-38.53,14.92-76.93,21.31-115.57c4.85-29.31,28.9-52.89,62.2-55.13c41.01-2.76,82.01-5.72,123.1-4.76
		c39.22,0.92,78.43,2.91,117.58,5.42c28.99,1.86,51.73,23.65,56.98,52.24c7.25,39.51,14.69,78.99,21.92,118.5
		c0.58,3.18,1.98,4.01,4.99,3.92c6.32-0.19,12.64-0.13,18.97-0.04c10.62,0.16,17.01,6.65,17.04,17.22c0.03,11.65,0.03,23.3,0,34.95
		c-0.02,10.58-6.35,16.99-17.06,17.18c-6.32,0.11-12.65,0.16-18.97-0.03c-3.04-0.09-4.39,0.83-4.97,3.98
		c-7.2,39.18-14.57,78.33-21.82,117.51c-6.03,32.54-30.95,53.35-64.09,53.39C356.45,504.31,354.64,504.31,352.07,504.31z
		 M233.55,209.84c0-24.46,0-48.45,0-72.15c-12.41,0-24.45,0-36.59,0c0,24.46,0,48.26,0,72.15
		C209.27,209.84,221.2,209.84,233.55,209.84z M288.17,209.85c0-23.87,0-47.77,0-72.24c-12.4,0-24.45,0-36.55,0
		c0,24.06,0,48.05,0,72.24C263.89,209.85,275.81,209.85,288.17,209.85z M251.69,379.89c0,24.52,0,48.5,0,71.98
		c12.46,0,24.49,0,36.64,0c0-24.42,0-48.08,0-71.98C276.01,379.89,263.97,379.89,251.69,379.89z M233.54,452.08
		c0-24.08,0-48.06,0-72.15c-12.41,0-24.44,0-36.55,0c0,24.05,0,47.82,0,72.15C209.33,452.08,221.24,452.08,233.54,452.08z
		 M141.93,209.72c12.67,0,24.87,0,37.1,0c0-23.76,0-47.21,0-71.22c-12.65,0.82-24.82,1.61-37.1,2.41
		C141.93,164.2,141.93,186.75,141.93,209.72z M306.06,138.53c0,24.21,0,47.69,0,71.18c12.57,0,24.78,0,37.09,0
		c0-23.01,0-45.69,0-68.86C330.72,140.08,318.53,139.31,306.06,138.53z M142.07,379.83c0,23.21,0,45.88,0,68.93
		c12.45,0.78,24.63,1.55,37.02,2.33c0-24.24,0-47.69,0-71.26C166.6,379.83,154.52,379.83,142.07,379.83z M306,379.92
		c0,23.65,0,47.02,0,71.13c12.54-0.81,24.73-1.6,37.15-2.4c0-23.12,0-45.82,0-68.73C330.67,379.92,318.46,379.92,306,379.92z
		 M142.17,227.29c0,19.88,0,39.23,0,58.38c12.6,0,24.79,0,37.05,0c0-19.66,0-38.87,0-58.38
		C166.74,227.29,154.55,227.29,142.17,227.29z M343.01,285.79c0-19.87,0-39.21,0-58.38c-12.6,0-24.79,0-37.05,0
		c0,19.63,0,38.84,0,58.38C318.43,285.79,330.63,285.79,343.01,285.79z M343.12,303.88c-12.52,0-24.72,0-36.98,0
		c0,19.7,0,39.03,0,58.42c12.53,0,24.61,0,36.98,0C343.12,342.82,343.12,323.59,343.12,303.88z M179.21,303.94
		c-12.76,0-24.95,0-37.16,0c0,19.64,0,38.87,0,58.29c12.49,0,24.69,0,37.16,0C179.21,342.68,179.21,323.47,179.21,303.94z
		 M196.88,303.78c0,19.6,0,38.93,0,58.49c12.34,0,24.38,0,36.69,0c0-19.61,0-38.94,0-58.49
		C221.2,303.78,209.17,303.78,196.88,303.78z M288.38,303.84c-12.51,0-24.56,0-36.72,0c0,19.64,0,38.96,0,58.4
		c12.43,0,24.46,0,36.72,0C288.38,342.7,288.38,323.48,288.38,303.84z M288.22,285.86c0-19.92,0-39.24,0-58.55
		c-12.42,0-24.46,0-36.63,0c0,19.65,0,38.98,0,58.55C263.95,285.86,275.98,285.86,288.22,285.86z M196.84,227.18
		c0,19.73,0,39.06,0,58.54c12.42,0,24.57,0,36.67,0c0-19.72,0-39.04,0-58.54C221.22,227.18,209.31,227.18,196.84,227.18z
		 M124.51,362.55c0-20.05,0-39.29,0-58.72c-10.32,0-20.37,0-30.34,0c-0.17,0.63-0.37,0.96-0.31,1.24
		c3.33,18.28,6.63,36.56,10.12,54.81c0.2,1.03,1.83,2.5,2.85,2.55C112.6,362.68,118.39,362.55,124.51,362.55z M360.75,303.77
		c0,19.49,0,38.96,0,58.79c5.68,0,10.99-0.13,16.28,0.05c2.93,0.1,3.99-0.98,4.48-3.87c1.74-10.31,3.84-20.55,5.74-30.84
		c1.46-7.92,2.83-15.86,4.3-24.13C380.98,303.77,371.05,303.77,360.75,303.77z M360.53,285.79c10.54,0,20.59,0,30.98,0
		c-3.47-18.93-6.83-37.5-10.36-56.03c-0.2-1.06-1.77-2.59-2.76-2.63c-5.9-0.25-11.82-0.12-17.85-0.12
		C360.53,246.92,360.53,266.14,360.53,285.79z M124.56,227c-5.87,0-11.18,0.17-16.47-0.06c-3.09-0.13-3.9,1.28-4.36,3.99
		c-1.44,8.49-3.15,16.94-4.71,25.41c-1.79,9.72-3.52,19.45-5.34,29.52c10.55,0,20.58,0,30.88,0
		C124.56,266.25,124.56,246.9,124.56,227z M377.47,209.84c-1.07-5.6-2.05-10.63-2.97-15.66c-2.76-14.97-5.46-29.96-8.27-44.92
		c-0.57-3.06-1.26-6.27-5.5-6.51c0,22.46,0,44.74,0,67.1C366.37,209.84,371.64,209.84,377.47,209.84z M124.45,209.86
		c0-22.63,0-44.77,0-67.05c-4.61,0.43-4.95,3.85-5.55,6.86c-1.74,8.78-3.35,17.6-4.97,26.4c-2.06,11.17-4.08,22.35-6.16,33.78
		C113.58,209.86,118.86,209.86,124.45,209.86z M360.82,379.9c0,22.6,0,44.67,0,66.74c0.47,0.21,0.94,0.43,1.41,0.64
		c1.22-1.88,3.14-3.61,3.54-5.65c4.01-20.45,7.77-40.94,11.66-61.74C371.73,379.9,366.34,379.9,360.82,379.9z M124.49,446.85
		c0-22.48,0-44.66,0-66.84c-5.7,0-11.07,0-16.61,0c0.68,3.77,1.28,7.19,1.91,10.6c3.08,16.62,6.13,33.25,9.29,49.86
		C119.61,443.32,120.01,446.58,124.49,446.85z"/>
	<path d="M132.86,67.36c9.84-14.88,21.33-26.44,34.92-35.96c1.9-1.33,3.8-2.72,5.84-3.81c4.26-2.3,7.65-4.75,9.63-9.87
		c1.34-3.46,5.62-6.74,9.33-8.17c32.43-12.53,65.11-12.57,97.87-1c6.49,2.29,11.3,5.96,13.16,13.04c0.4,1.53,2.55,2.83,4.16,3.77
		c17.66,10.3,32.28,23.78,44.36,42c-7.95-0.58-14.91-0.99-21.85-1.72c-1.03-0.11-1.85-1.8-2.86-2.63
		c-9.11-7.43-18.15-14.95-27.47-22.11c-1.41-1.09-4.14-0.58-6.27-0.59c-3.89-0.03-8.2,1.24-11.61-0.02
		c-26.38-9.7-52.54-9.74-78.92-0.02c-3.3,1.22-7.61,0.92-11.11,0c-3.04-0.8-5.38-1.02-7.77,0.92c-8.75,7.09-17.66,14.01-26.14,21.42
		c-2.56,2.23-4.77,3.58-8.2,3.62C144.65,66.28,139.36,66.89,132.86,67.36z"/>
</g>
</svg>
