<?xml version="1.0" encoding="utf-8"?>
<!-- Generator: Adobe Illustrator 27.2.0, SVG Export Plug-In . SVG Version: 6.00 Build 0)  -->
<svg version="1.1" id="Layer_1" xmlns="http://www.w3.org/2000/svg" xmlns:xlink="http://www.w3.org/1999/xlink" x="0px" y="0px"
	 viewBox="0 0 373.73 302.73" style="enable-background:new 0 0 373.73 302.73;" xml:space="preserve">
<style type="text/css">
	.st0{fill:#FFFFFF;}
</style>
<path d="M294.92,41.58C268.36,21,224.88,0,186.86,0c-38.02,0-81.49,21-108.05,41.58C10.25,94.71-34.47,205.42,34.47,205.42
	c11.94,0,21.37-4.14,29.65-11.08c7.71,55.77,34.34,108.39,122.57,108.39c88.26,0,115.08-52.61,122.88-108.42
	c8.29,6.96,17.73,11.11,29.69,11.11C408.2,205.42,363.48,94.71,294.92,41.58z M175.15,162.12h24.8c8.67,0,13.01,10.48,6.88,16.61
	l-12.4,12.4c-3.8,3.8-9.96,3.8-13.76,0l-12.4-12.4C162.14,172.61,166.48,162.12,175.15,162.12z M153.87,88.57
	c3.37,3.54,5.46,8.29,5.47,13.46c0.02,10.68-8.95,19.68-19.62,19.69c-9.09,0.01-16.82-6.36-18.97-14.86
	C134.37,99.34,138.71,96.94,153.87,88.57z M246.66,249.7c-3.79,2.98-8.17,2.06-11.78-2.49c-24.83-31.26-71.27-31.26-96.03-0.01
	c-3.6,4.55-7.97,5.47-11.78,2.5c-3.74-2.92-4.03-7.67-0.53-12.08c15.44-19.51,35.81-28.88,60.39-29.41
	c24.66,0.61,44.9,10.01,60.25,29.39C250.66,242.01,250.38,246.78,246.66,249.7z M233.88,121.73c-10.7-0.1-19.62-9.15-19.5-19.8
	c0.06-5.15,2.14-9.85,5.47-13.36l33.13,18.3C250.82,115.4,242.99,121.81,233.88,121.73z"/>
</svg>
