<?xml version="1.0" encoding="utf-8"?>
<!-- Generator: Adobe Illustrator 27.2.0, SVG Export Plug-In . SVG Version: 6.00 Build 0)  -->
<svg version="1.1" id="Layer_1" xmlns="http://www.w3.org/2000/svg" xmlns:xlink="http://www.w3.org/1999/xlink" x="0px" y="0px"
	 viewBox="0 0 655.09 439.81" style="enable-background:new 0 0 655.09 439.81;" xml:space="preserve">
<style type="text/css">
	.st0{fill:#FFFFFF;}
</style>
<g>
	<path d="M456.66,406.17c-10.65,14.58-22.76,25.79-39.46,30.69c-27.38,8.04-51.01-1.35-73.26-16.38c-3.84-2.59-7.59-5.44-10.86-8.7
		c-4.05-4.03-7.02-3.33-11.07,0.24c-13.68,12.07-29.03,21.19-47.05,25.47c-27.35,6.5-50.09-1.19-68.88-21.65
		c-1.29-1.41-2.48-2.91-3.69-4.4c-1.19-1.45-2.34-2.92-4.02-5.03c-22.31,26.57-52.35,26.53-82.28,23.38
		c-34.97-3.68-64-20.31-85.63-48.01C2.15,345.56-8.18,305.18,6.96,260.35c4.99-14.76,14.34-26.78,25.44-37.66
		c49.77-48.78,99.65-97.45,148.88-146.76c16.81-16.84,32.34-34.88,53.28-46.93c64.8-37.27,129.9-41.05,192.56,3.01
		c23.9,16.8,44.24,38.96,64.95,59.91c44.75,45.26,86.44,93.54,134.85,135.2c13.35,11.49,21.12,27.22,24.86,44.38
		c10.38,47.61-4.01,88.37-37.73,121.85c-34.68,34.44-77.35,44.09-124.78,33.96C476.19,424.5,466.16,416.67,456.66,406.17z
		 M343.76,169.02c0.4-0.02,0.81-0.05,1.21-0.07c0-13.36,0.64-26.76-0.18-40.07c-0.79-12.8-7.18-17.75-19.25-16.94
		c-9.14,0.62-14.37,4.85-14.83,16.25c-0.78,19.32-0.24,38.72,0.5,58.06c1.52,39.86-14.21,70.37-48.18,91.42
		c-6.03,3.74-12.26,7.24-17.97,11.42c-37.95,27.76-45.3,62.94-21.35,101.29c8.79,14.07,21.27,20.88,37.98,18.81
		c17.88-2.22,32.06-11.74,44.97-23.54c11.74-10.73,29.3-10.32,41.67-0.62c10.2,7.99,21.16,15.61,32.91,20.91
		c14.44,6.52,29.41,5.74,42.15-5.62c22.95-20.47,28.13-61.72,10.95-87.12c-10.54-15.58-25.51-25.95-41.45-35.27
		c-24.88-14.54-41.69-35.5-46.53-64.15C343.88,199.13,344.52,183.96,343.76,169.02z M156.3,143.9c-3.23,2.78-5.13,4.23-6.83,5.9
		c-20.27,19.92-40.49,39.88-60.75,59.8c-10.52,10.35-20.75,21.02-31.69,30.9c-27.13,24.52-32.51,54.62-22.35,88.13
		c16.44,54.23,67.18,82.03,124.76,69.65c11.26-2.42,17.31-9.44,19.67-20.4c3.58-16.61-0.03-32.56-4.07-48.48
		C159.76,269.15,146.47,208.7,156.3,143.9z M499.5,144.02c0,3.22-0.07,4.76,0.01,6.28c0.9,16.89,2.98,33.8,2.51,50.65
		c-1.27,45.31-11.93,89.13-22.62,132.94c-2.88,11.8-4.21,24.22-4.32,36.38c-0.14,15.84,6.75,24.68,20.37,27.75
		c52.35,11.79,102.78-9.61,122.48-62.18c12.75-34.04,10.37-66.46-18-93.51c-21.76-20.75-42.92-42.12-64.38-63.18
		C523.92,167.75,512.24,156.43,499.5,144.02z M450.23,175.78c0.19-15.28-11.84-27.68-27.11-27.96
		c-15.65-0.28-28.61,12.12-28.69,27.42c-0.07,14.79,12.66,27.45,27.75,27.59C437.55,202.97,450.05,190.92,450.23,175.78z
		 M233.05,147.82c-15.41-0.08-27.72,11.9-27.89,27.13c-0.17,15.31,11.82,27.62,27.17,27.88c15.44,0.26,28.64-12.47,28.58-27.57
		C260.86,160.39,248.18,147.89,233.05,147.82z"/>
	<path d="M363.17,293.61c0.12,19.41-15.61,35.41-35.12,35.73c-19.38,0.31-35.67-15.49-35.95-34.88
		c-0.28-19.82,15.8-36.25,35.49-36.26C346.91,258.19,363.05,274.25,363.17,293.61z"/>
</g>
</svg>
