<?xml version="1.0" encoding="utf-8"?>
<!-- Generator: Adobe Illustrator 27.2.0, SVG Export Plug-In . SVG Version: 6.00 Build 0)  -->
<svg version="1.1" id="Layer_1" xmlns="http://www.w3.org/2000/svg" xmlns:xlink="http://www.w3.org/1999/xlink" x="0px" y="0px"
	 viewBox="0 0 466.56 439.65" style="enable-background:new 0 0 466.56 439.65;" xml:space="preserve">
<style type="text/css">
	.st0{fill:#FFFFFF;}
</style>
<g>
	<g id="L23Lxe.tif">
		<g>
			<path d="M29.04,272.25c7.26,5.76,13.85,11.86,21.28,16.69c25.42,16.54,53.92,25.31,83.24,31.76c5.67,1.25,11.42,2.11,17.1,3.29
				c7.22,1.51,10.36,6.64,7.97,13.73c-9.23,27.32-9.6,54.69-1.23,82.27c2.53,8.34-3.18,13.93-12.42,12.27
				c-26.19-4.71-51.89-11.19-76.41-21.77c-17.81-7.69-34.55-17.09-48.45-30.91C6.75,366.31-0.33,350.66,0.06,331.41
				c0.53-26.11,0.68-52.25-0.04-78.35c-0.59-21.76,8.34-38.51,24-52.44c20.68-18.38,45.4-29.25,71.38-37.46
				c48.51-15.33,98.43-20.2,149.08-19.24c46.1,0.87,91.37,6.88,135.1,22.09c22.56,7.85,43.95,18.01,62.12,33.96
				c16.34,14.34,25.5,31.61,24.72,54.15c-0.84,24.43-1.05,48.94,0.04,73.35c1.17,26.07-10.3,44.96-29.88,60.24
				c-23.62,18.43-50.96,28.94-79.48,36.71c-44.28,12.06-89.49,16.11-135.25,15.09c-8.97-0.2-17.94-0.74-26.91-1.09
				c-4.41-0.17-7.57-2.24-9.51-6.15c-15.44-31.22-17.21-62.99-3.65-95.31c2.77-6.6,5.63-7.98,12.87-7.52
				c59.5,3.78,118.25,0.25,175.33-18.63c21.73-7.19,42.34-16.65,59.75-32.02c2.49-2.2,5.28-4.05,7.99-6.12
				c-10.1-11.87-21.2-19.36-33.16-25.67c-25.2-13.3-52.31-20.83-80.12-26.19c-35.75-6.89-71.87-9.2-108.18-7.91
				c-49.24,1.76-97.53,8.73-143.16,28.68c-14.39,6.29-27.82,14.18-39.11,25.31C32.61,268.27,31.32,269.78,29.04,272.25z
				 M360.81,353.43c-5.39,0.05-8.99,3.71-8.91,9.07c0.07,5.09,4.19,9.17,9.17,9.09c4.95-0.08,9.05-4.33,9.01-9.33
				C370.02,357.07,366.16,353.39,360.81,353.43z M237.99,390.76c5.24,0.09,9.21-3.65,9.33-8.78c0.11-5.17-3.72-9.23-8.83-9.36
				c-5.04-0.13-9.23,3.87-9.35,8.9C229.03,386.74,232.79,390.67,237.99,390.76z M295.86,383.88c5.12-0.01,9.21-4.01,9.23-9.02
				c0.02-4.87-4.27-9.11-9.24-9.12c-5.08-0.01-9.07,4.03-9.06,9.15C286.8,380.15,290.57,383.89,295.86,383.88z M413.89,353.44
				c4.94,0.14,9.19-3.98,9.31-9c0.12-5.23-3.63-9.13-8.88-9.24c-5.21-0.11-9.28,3.72-9.39,8.82
				C404.81,348.96,408.94,353.3,413.89,353.44z"/>
		</g>
	</g>
	<path d="M250.05,0c1.41,0.65,1.77,1.81,1.76,3.29c-0.03,16.49-0.02,32.99-0.02,49.48c0,0.55,0,1.11,0,1.83c0.61,0,1.11,0,1.62,0
		c9.78,0,19.55,0.01,29.33-0.01c1.19,0,2.25,0.13,2.86,1.33c0.59,1.17,0.03,2.06-0.67,2.95c-18.66,23.9-37.32,47.81-55.97,71.72
		c-0.73,0.93-1.53,1.69-2.85,1.27c-1.41-0.45-1.69-1.57-1.69-2.88c0.01-16.58,0-33.16,0-49.74c0-0.55,0-1.11,0-1.81
		c-0.63,0-1.13,0-1.64,0c-9.69,0-19.38-0.03-29.07,0.03c-1.47,0.01-2.58-0.36-3.4-1.57c0-0.52,0-1.04,0-1.56
		c0.4-0.49,0.8-0.98,1.19-1.48c18.01-23.06,36.01-46.13,54.03-69.18c1-1.28,2.13-2.44,3.21-3.66C249.18,0,249.62,0,250.05,0z"/>
</g>
</svg>
