<?xml version="1.0" encoding="utf-8"?>
<!-- Generator: Adobe Illustrator 27.2.0, SVG Export Plug-In . SVG Version: 6.00 Build 0)  -->
<svg version="1.1" id="Layer_1" xmlns="http://www.w3.org/2000/svg" xmlns:xlink="http://www.w3.org/1999/xlink" x="0px" y="0px"
	 viewBox="0 0 379.01 506.72" style="enable-background:new 0 0 379.01 506.72;" xml:space="preserve">
<style type="text/css">
	.st0{fill:#FFFFFF;}
</style>
<g>
	<path d="M94.35,395.57c0-11.48-0.17-22.96,0.09-34.44c0.1-4.52-1.2-7.28-5.18-9.92C23.03,307.25-6.56,245.16,1.21,166.49
		C9.28,84.8,76.5,16.58,157.24,2.68c97.72-16.82,199.68,46.84,219.07,156.16c12.87,72.57-21.11,150.31-84.13,190.37
		c-6.48,4.12-8.48,8.5-8.4,15.81c0.26,23.22,0.8,46.51-0.59,69.66c-2.39,39.92-36.81,71.76-76.7,71.96
		c-15.54,0.08-31.27,0.51-46.59-1.58c-36.49-4.98-64.93-38.28-65.51-75.04C94.2,418.54,94.36,407.05,94.35,395.57z M205.19,95
		c5.99,0,11.41-0.13,16.82,0.02c23.82,0.66,43.56,19.13,46.07,42.99c2.47,23.5-13.62,45.84-37.19,50.58
		c-8.36,1.68-17.09,1.54-26.15,2.27c0,10.07,0.12,19.6-0.03,29.13c-0.18,11.73-5.95,17.44-17.75,17.61
		c-9.57,0.14-19.14-0.12-28.7,0.09c-9.77,0.2-16.3,6.66-16.31,15.7c-0.01,9,6.56,15.42,16.34,15.6c9.29,0.17,18.59-0.02,27.88,0.07
		c12.86,0.12,18.48,5.64,18.54,18.47c0.1,22.4,0.03,44.81,0.03,67.22c0,2.9,0,5.81,0,8.83c16.37,0,31.54,0,46.54,0
		c0.35-1.02,0.61-1.5,0.68-2.01c0.11-0.81,0.25-1.65,0.12-2.45c-2.56-16.49,4.8-25.6,19.12-34.46
		c52.38-32.43,78.25-81.02,75.43-142.32c-2.7-58.57-31.59-102.8-82.83-131.77c-17.96-10.15-37.5-15.83-58.61-17.92
		C205.19,53.33,205.19,73.46,205.19,95z M173.29,32.25c-7.35,1.35-13.79,2.24-20.08,3.72C77.64,53.74,21.35,125.57,32.83,211.51
		c7.11,53.26,35.89,92.92,83.17,118.81c6.71,3.67,10.13,8.71,9.78,16.44c-0.25,5.61-0.05,11.23-0.05,16.78c16.53,0,31.71,0,47.55,0
		c0-19.37,0.01-38.19-0.02-57c0-1.58-0.32-3.16-0.49-4.75c-9.56-0.91-19.05-0.57-27.85-2.89c-23.8-6.27-37.52-28.62-34.05-53.57
		c3.07-22.03,23.01-38.82,46.67-39.23c5.07-0.09,10.14-0.01,15.76-0.01c0-11.19-0.23-21.02,0.06-30.83
		c0.32-10.77,6.31-16.54,17.07-16.74c9.3-0.17,18.6,0.1,27.9-0.09c11.01-0.22,18.17-6.55,18.27-15.79
		c0.09-9.14-7.25-15.85-18.01-16.09c-9.02-0.2-18.05,0.03-27.08-0.07c-12.32-0.13-18.06-5.73-18.17-18.06
		c-0.16-17.77-0.04-35.55-0.04-53.32C173.29,47.79,173.29,40.46,173.29,32.25z M129.62,443.15c4.69,16.11,19.04,29.32,35.15,30.63
		c15.7,1.28,31.67,1.52,47.35,0.15c19.85-1.73,36.52-17.59,39.13-37.35c1.72-13.07,0.33-26.55,0.33-40.14c-41.99,0-83.63,0-125.43,0
		c0,5.18,0,9.72,0,15.19c3.32,0,6.24,0,9.16,0c17.48,0,34.97-0.09,52.45,0.04c9.51,0.07,15.8,5.3,16.76,13.4
		c1.25,10.52-5.06,17.9-16,18.01C169.15,443.29,149.78,443.15,129.62,443.15z"/>
</g>
</svg>
