<?xml version="1.0" encoding="utf-8"?>
<!-- Generator: Adobe Illustrator 27.2.0, SVG Export Plug-In . SVG Version: 6.00 Build 0)  -->
<svg version="1.1" id="Layer_1" xmlns="http://www.w3.org/2000/svg" xmlns:xlink="http://www.w3.org/1999/xlink" x="0px" y="0px"
	 viewBox="0 0 546.28 467.94" style="enable-background:new 0 0 546.28 467.94;" xml:space="preserve">
<style type="text/css">
	.st0{fill:#FFFFFF;}
</style>
<g>
	<path d="M480.7,204.14c0,5.26,0,8.69,0,12.12c0,74.62,0.01,149.25-0.01,223.87c-0.01,21.12-6.76,27.8-28.02,27.8
		c-120.05,0.01-240.11,0-360.16,0c-1.64,0-3.28,0.02-4.92-0.02c-15.18-0.34-23.1-8.29-23.11-23.53
		c-0.04-76.26-0.02-152.53-0.02-228.79c0-2.98,0-5.95,0-11.05c-7.94,5.82-14.62,10.71-21.31,15.59c-3.09,2.26-6.12,4.6-9.29,6.73
		c-10.26,6.88-22.11,5.3-29.34-3.84c-7.07-8.94-5.76-22.6,3.52-30.13c9.76-7.91,19.96-15.27,30.03-22.79
		c72.68-54.26,145.38-108.5,218.08-162.74c13.19-9.84,20.75-9.84,33.93-0.02C372,68.43,453.93,129.49,535.81,190.6
		c13.25,9.89,13.95,24.25,1.97,34.57c-7.54,6.49-18.28,6.93-27.29,0.64C500.96,219.17,491.68,212.15,480.7,204.14z M438.71,424.38
		c0-3.85,0-7.06,0-10.28c0-77.64-0.1-155.28,0.17-232.92c0.03-7.07-2.1-11.33-7.74-15.5C380.39,128.17,329.8,90.43,279.37,52.48
		c-4.72-3.55-7.51-3.19-11.89,0.12c-50.85,38.31-101.8,76.49-152.89,114.49c-4.67,3.48-6.46,7.02-6.44,12.84
		c0.19,78.73,0.12,157.47,0.15,236.2c0,2.64,0.3,5.28,0.47,8.27C218.72,424.38,328.04,424.38,438.71,424.38z"/>
	<path d="M272.13,369.13c-18.67,0.08-38.31-2.71-56.62-11.55c-27.13-13.1-33.83-34.45-18.82-60.64
		c12.02-20.98,28.95-37.8,48.85-51.06c17.88-11.91,37.72-12.18,55.61-0.32c20.6,13.65,38.29,30.87,50.38,52.87
		c13.63,24.8,7.03,45.7-18.36,58.48C314.48,366.34,294.32,369.17,272.13,369.13z"/>
	<path d="M263.41,194.87c-0.14,2.44-0.09,4.64-0.41,6.78c-1.8,11.85-9.42,20.68-19.47,22.68c-9.09,1.82-19.68-3.94-25.39-14.31
		c-6.25-11.34-7.65-23.16-1.93-35.2c7.1-14.92,23.88-18.12,35.88-6.78C259.82,175.35,263.25,184.58,263.41,194.87z"/>
	<path d="M333.79,193.82c-0.26,6.54-3.17,15.4-10.2,22.57c-13.16,13.42-32.18,9.45-38.43-8.32c-4.68-13.31-2.14-25.87,6.36-36.98
		c6.43-8.39,17.34-11.63,26.25-8.52C327.38,165.94,333.94,177.35,333.79,193.82z"/>
	<path d="M207.33,236.73c0.08,15.29-6.42,25.99-15.85,28.73c-10.04,2.91-21.64-2.35-28.44-13.09c-6.3-9.95-8.62-20.6-4.51-31.99
		c5.24-14.53,20.32-19.61,33.2-11C202.26,216.43,206.75,226.94,207.33,236.73z"/>
	<path d="M389.86,232.43c-0.09,10.34-3.98,19.13-11.32,26.28c-6.72,6.55-14.96,9.54-24.01,6.39c-8.71-3.03-12.98-10.17-14.5-19.2
		c-1.89-11.17,0.65-21.11,7.75-29.81c7.68-9.41,17.59-12.96,26.53-9.8C384.36,209.84,390.04,219.4,389.86,232.43z"/>
</g>
</svg>
