<?xml version="1.0" encoding="utf-8"?>
<!-- Generator: Adobe Illustrator 27.2.0, SVG Export Plug-In . SVG Version: 6.00 Build 0)  -->
<svg version="1.1" id="Layer_1" xmlns="http://www.w3.org/2000/svg" xmlns:xlink="http://www.w3.org/1999/xlink" x="0px" y="0px"
	 viewBox="0 0 638.62 449.03" style="enable-background:new 0 0 638.62 449.03;" xml:space="preserve">
<style type="text/css">
	.st0{fill:#FFFFFF;}
</style>
<g>
	<g>
		<path d="M502.83,126.37c-0.31,0.7-0.82,1.39-0.89,2.11c-1.16,13.66-4.75,26.69-9.92,39.33c-1.25,3.05-2.6,6.06-3.7,8.65
			c-2.74,1.58-4.25,0.41-5.76-1.08c-4.02-3.97-8.09-7.91-12.16-11.83c-1.18-1.13-2.42-2.2-3.84-3.47
			c-10.32,14.48-23.84,24.17-40.97,29.59c8.49,6.48,14.11,14.65,18.64,23.62c5.47,10.83,9.28,22.3,12.69,33.92
			c4.89,16.69,8.2,33.75,11.7,50.76c0.33,1.62,0.32,3.31,0.46,4.96c0.62,7.59-6.74,14.79-16.42,11.6c-1.69-0.56-3.26-1.46-5.39-2.44
			c2.11,7.87,4.07,15.32,6.09,22.75c9.74,35.92,19.5,71.84,29.18,107.78c0.48,1.79,1.55,3.8-0.1,5.67c-0.11,0.08-0.24,0.2-0.38,0.28
			c-0.14,0.08-0.29,0.16-0.45,0.19c-0.49,0.1-0.98,0.24-1.47,0.24c-145.21,0.01-290.42,0.02-435.62,0.01
			c-0.83,0-1.65-0.12-2.54-0.18c-18.18-11.81-29.88-28.42-36.1-49.03c-2.93-9.7-4.81-19.61-5.16-29.78
			c-0.19-5.48-0.93-10.97-0.65-16.41c0.5-9.76,1.25-19.54,2.47-29.24c5.4-42.78,18.36-83.64,32.07-124.29
			c1.59-4.71,3.13-9.43,4.73-14.24c-6.89-8.37-13.05-17.18-17.93-26.88c-4.06-8.07-7.13-16.47-8.27-25.39
			c-1.35-10.57,0.78-19.96,9.74-27.2c6.58-5.32,12.44-11.52,18.63-17.32c16.99-15.92,34.38-31.37,53.21-45.11
			c21.03-15.35,43.39-28.16,68.51-35.64c9.38-2.79,18.91-4.7,28.64-5.92c11.62-1.45,23.28-1.48,34.84-0.49
			c18.04,1.54,35.59,5.83,52.56,12.23c5.73,2.16,11.33,4.67,16.95,7.11c5.97,2.59,12.14,4.51,18.61,5.07
			c8.4,0.73,16.18-1.58,23.09-6.26c12.8-8.67,26.7-14.71,41.81-17.79c9.09-1.85,18.22-2.77,27.65-1.98
			c21.68,1.8,40.29,10.19,56.45,24.46c17.86,15.77,29.07,35.57,34.93,58.48c1.51,5.91,2.13,12.04,3.21,18.06
			c0.13,0.74,0.58,1.42,0.88,2.13C502.83,111.06,502.83,118.72,502.83,126.37z M70.05,117.92c-0.64,1.33-1.07,2.03-1.34,2.8
			c-9.95,28.08-20.21,56.06-29.74,84.28c-12.34,36.53-23.71,73.36-29.65,111.62c-1.73,11.16-3.03,22.36-3.39,33.62
			c-0.24,7.28,0.35,14.6,0.74,21.89c0.66,12.52,3.44,24.61,8.4,36.1c6.2,14.34,15.56,26.18,29.19,35.06c41.34,0,83.02,0,124.45,0
			c3.36-6.47,6.41-12.91,9.97-19.07c9.19-15.89,20.67-30.13,32.87-43.74c12.09-13.49,24.66-26.55,36.91-39.91
			c10-10.9,20-21.8,29.67-32.99c6.63-7.67,12.53-15.95,16.57-25.34c1.22-2.84,2.14-5.94,2.52-9.01c0.94-7.76-2-14.23-7.26-19.87
			c-11.57-12.39-23.04-24.89-34.55-37.33c-1.76-1.91-3.59-3.76-5.83-6.1c0.24,4.57,0.56,8.36,0.6,12.15
			c0.08,8.31,0.81,16.55,1.95,24.79c1.58,11.45,4.96,22.27,10.27,32.51c0.67,1.3,1.28,2.64,1.92,3.97
			c-1.01,1.42-1.83,2.67-2.75,3.83c-12,15.03-26.06,27.93-41.13,39.77c-16.48,12.95-34,24.31-52.39,34.39
			c-26.55,14.55-54.37,25.96-83.55,34.02c-1.5,0.42-3.14,0.34-4.21,0.44c-2.54-2.32-1.37-4.16-0.56-5.95
			c15.11-33.54,30.23-67.08,45.35-100.62c12.94-28.71,25.88-57.41,38.82-86.12c1.96-4.34,3.88-8.7,5.81-13.04
			c-10.42-10.88-21.72-20.12-33.46-28.86c-15.6-11.61-32.04-21.95-48.5-32.27C82,125.36,76.23,121.78,70.05,117.92z M176.23,442.15
			c0.55,0.49,0.66,0.68,0.8,0.7c0.81,0.11,1.62,0.26,2.43,0.26c79.84-0.03,159.68-0.07,239.52-0.11c0.14,0,0.31-0.09,0.43-0.18
			c0.12-0.1,0.2-0.26,0.6-0.8c0-0.41,0-1.21,0-2.02c0-59.9,0.06-119.79-0.11-179.69c-0.02-5.73-0.95-11.62-2.49-17.15
			c-6.57-23.73-21.85-39.79-44.59-48.77c-10.47-4.13-21.03-8.07-31.72-11.6c-22.6-7.47-44.31-16.78-64.41-29.67
			c-4.56-2.92-9.39-5.43-14.27-8.23c-8.74,13.65-21.52,18.6-36.89,18.68c4.82,13.06,11.71,24.32,20.81,34.19
			c10.59,11.49,21.35,22.84,32.01,34.28c5.78,6.2,11.55,12.42,17.22,18.72c8.69,9.65,10.1,20.67,5.18,32.38
			c-2.23,5.31-5.26,10.36-8.43,15.19c-7.79,11.84-17.23,22.38-26.82,32.76c-12.19,13.19-24.84,25.96-36.89,39.28
			c-10.25,11.33-20.17,22.99-29.81,34.85c-7.76,9.54-14.39,19.92-19.9,30.95C177.89,438.17,177.06,440.27,176.23,442.15z
			 M36.17,102.03c1.31,0,1.78,0.04,2.25-0.01c0.49-0.05,0.98-0.3,1.46-0.28c10.07,0.49,19.73,2.61,28.38,8.03
			c16.32,10.22,32.68,20.37,48.8,30.88c19.37,12.63,38.01,26.24,54.33,42.77c0.19,0.19,0.54,0.23,1.27,0.51
			c14.57-32.41,29.15-64.85,43.9-97.63c1.59,0.21,2.94,0.38,3.84,0.5c1.67,2.45,0.54,4.09-0.19,5.71
			c-6.6,14.66-13.24,29.3-19.84,43.95c-22.13,49.1-44.24,98.21-66.39,147.31c-14.92,33.09-29.88,66.15-44.82,99.23
			c-0.65,1.43-1.2,2.91-2.09,5.09c1.73-0.35,2.65-0.46,3.53-0.73c39.71-11.9,76.54-29.74,110.56-53.43
			c17.37-12.1,33.55-25.6,47.94-41.17c3.01-3.26,5.79-6.74,8.53-9.94c-1.92-4.48-3.72-8.39-5.28-12.4
			c-5.74-14.74-6.97-30.27-7.87-45.84c-0.42-7.28-0.63-14.58-0.92-21.62c-8.9-9.27-15.63-19.46-20.73-30.77
			c-4.24-9.4-6.44-19.11-5.51-29.48c0.82-9.06,9.23-15.87,18.15-14.1c5.01,0.99,9.87,2.72,14.78,4.16c1.32,0.39,2.6,0.92,4.35,1.55
			c-0.26-1.63-0.33-2.61-0.58-3.53c-3.7-13.37-5.5-26.97-4.66-40.83c0.31-5.11,0.94-10.23,1.86-15.26
			c2.95-16.15,10.17-30.4,19.87-43.48c2.61-3.52,5.34-6.96,7.99-10.41c-0.52-0.48-0.72-0.81-1.01-0.91
			c-20.47-7.66-41.57-12.27-63.43-13.13c-11.82-0.47-23.56,0.78-35.12,3.06c-16.33,3.23-31.84,8.99-46.61,16.68
			c-19.08,9.94-36.52,22.36-52.95,36.17c-10.05,8.45-19.84,17.2-29.63,25.94C45.63,92.79,41.21,97.24,36.17,102.03z M461.73,156.45
			c-4.16-4.42-7.88-8.45-11.68-12.4c-10.87-11.3-14.41-24.64-11.2-39.87c1.67-7.93,3.4-15.85,5.04-23.79
			c0.57-2.75,1.12-5.53,1.38-8.33c0.6-6.62-3.86-11.5-10.5-11.79c-6.02-0.26-11.53,1.16-16.33,4.86c-1.83,1.41-3.53,3.02-5.18,4.64
			c-5.32,5.23-11.54,8.76-18.76,10.76c-17.39,4.82-34.5,10.54-51.22,17.35c-4.41,1.8-8.77,3.73-14.15,6.02
			c2.07,1.69,3.64,2.71,4.88,4.03c4.88,5.22,9.42,10.72,13.12,16.88c9.72,16.17,10.74,32.73,2.47,49.77
			c-0.69,1.41-1.37,2.83-2.11,4.35c9.85,3.64,19.3,7.14,28.51,10.55c3.79-1.22,7.23-2.42,10.72-3.43c9.68-2.79,19.4-4.18,29.33-0.98
			c1.62,0.52,3.68,0.33,5.38-0.13C438.43,180.34,451.93,170.76,461.73,156.45z M285.78,22.89c-7.86,8.58-14.23,17.24-19.46,26.72
			c-5.92,10.72-9.73,22.21-10.9,34.34c-1.69,17.7,0.6,35.08,5.98,52.03c0.37,1.18,1.25,2.19,2.23,3.86c0.71-1.71,1.26-2.7,1.53-3.76
			c4.5-17.62,12.42-33.51,24.03-47.52c7.54-9.1,16.99-15.41,28.5-18.02c22.89-5.2,45.86-10.02,68.79-15.02
			c4.8-1.05,9.58-2.18,14.47-3.29c-0.4-3.58-0.44-6.77-1.19-9.79c-0.7-2.85-1.91-5.65-3.31-8.24c-2.05-3.79-5.5-5.51-9.79-5.85
			c-7.02-0.56-13.03,1.47-18.2,6.3c-4.37,4.08-8.96,7.92-13.43,11.89c-7.85,6.99-18.51,7.79-27.95,1.57
			c-11.64-7.66-23.57-14.87-35.41-22.22C289.9,24.79,287.93,23.97,285.78,22.89z M476.75,442.88
			c-12.51-45.83-24.92-91.27-37.27-136.51c-4.5-4.67-8.85-9.19-13.39-13.9c0,50.21,0,100.19,0,150.41
			C442.91,442.88,459.47,442.88,476.75,442.88z M257.1,142.39c-1.98-1.04-3.34-1.98-4.84-2.49c-5.61-1.9-11.19-3.98-16.94-5.36
			c-6.29-1.51-10.82,2.06-12.22,8.4c-1.07,4.86-0.04,9.46,0.66,14.53C237.25,157.95,248.71,154.67,257.1,142.39z"/>
	</g>
	<g>
		<path d="M408.92,256.16c2.23,1.12,2.43,2.61,1.74,4.75c-6.93,2.6-7.27,9.37-8.6,15.38c-2.07,9.36-3.55,18.86-6.98,27.88
			c-5.6,14.78-15.51,24.87-31.08,28.94c-6.94,1.81-13.61-1.46-15.74-8.38c-1.7-5.52-3.13-11.19-3.9-16.9
			c-0.88-6.56-1.04-13.23-1.23-19.86c-0.43-15.19,2.01-30.09,5.47-44.79c2.16-9.16,4.95-18.18,7.52-27.25
			c0.44-1.54,1.21-2.98,1.67-4.06c2.83-1.15,4.03,0.03,5.03,1.97c-2.01,7.21-4.11,14.5-6.07,21.82c-3.3,12.33-6.08,24.77-6.79,37.55
			c-0.43,7.62-0.95,15.26-0.74,22.88c0.24,8.61,1.87,17.11,4.19,25.43c0.96,3.44,2.82,6,7.06,6.48
			c14.96-2.95,24.45-12.41,29.65-26.73c2.89-7.97,4.23-16.31,6-24.56c0.87-4.03,1.84-8.09,3.26-11.95
			C400.99,260.43,403.69,256.9,408.92,256.16z"/>
	</g>
	<g>
		<path d="M327.98,230.15c-7.19,0.41-15.86-5.82-16.08-15.54c-0.22-10.01,8.64-16.45,15.87-16.33c8.53,0.15,15.89,7.36,15.98,15.87
			C343.85,222.61,336.46,230.1,327.98,230.15z"/>
	</g>
	<g>
		<path d="M368.37,147.58c0-1.18,0-2.26,0-3.33c2.8-2.1,6.05-2.14,9.06-2.82c11.27-2.54,22.59-4.86,33.86-7.41
			c6.88-1.56,9.23-4.73,9.79-11.79c0.49-6.26,1.32-12.49,2.05-19.2c1.42-0.33,2.74-0.64,4.57-1.06c0.42,1.66,1.03,2.87,0.98,4.05
			c-0.13,2.97-0.52,5.93-0.86,8.89c-0.45,3.94-0.75,7.91-1.49,11.8c-1.31,6.9-5.66,11.07-12.44,12.62
			c-10.46,2.39-20.94,4.65-31.42,6.98c-2.26,0.5-4.49,1.13-6.75,1.57C373.49,148.34,371.22,149.12,368.37,147.58z"/>
	</g>
	<g>
		<path d="M401.63,117.72c0.24,0.85,0.54,1.46,0.57,2.09c0.03,0.63-0.22,1.27-0.3,1.69c-1.8,2.01-3.73,1.27-5.71,1.02
			c-2.97-0.38-5.3-1.84-7.32-3.87c-4.03-4.04-5.02-10.53-2.48-15.65c2.66-5.36,7.84-7.94,14.55-7.16c1.78,1.61,1.74,3.27,0.1,4.95
			c-7.37,1.36-9.94,3.49-10.03,8.24C390.91,113.93,393.76,116.35,401.63,117.72z"/>
	</g>
	<g>
		<path d="M406.29,150.8c0.28,1.03,0.59,2.22,0.92,3.44c-0.6,0.49-0.93,0.89-1.36,1.09c-0.74,0.35-1.52,0.62-2.3,0.85
			c-4.16,1.21-6.49,3.91-6.52,7.61c-0.03,3.69,2.25,6.39,6.4,7.7c1.07,0.34,2.09,0.86,3.44,1.44c-0.07,1.3-0.14,2.51-0.19,3.52
			c-2.26,1.41-4.22,1-6.09,0.37c-4.86-1.62-7.7-5.66-9.28-12.95C393.37,154.11,398.12,149.83,406.29,150.8z"/>
	</g>
	<g>
		<path d="M423.06,147.22c1.53-0.37,2.74-0.66,4.26-1.02c4.1,7.89,6.13,16.28,9.54,24.43c-0.84,0.93-1.67,1.85-2.28,2.53
			c-2.25,0.13-3.22-0.85-3.81-2.39c-2.56-6.64-5.17-13.26-7.66-19.93C422.78,149.98,423.06,148.9,423.06,147.22z"/>
	</g>
	<g>
		<path d="M519.29,314.89c-9.22,0-16.96-2.76-22.59-8.21c-9.07-8.77-11.36-23.25-6.46-40.77c4.73-16.88,15.63-34.76,30.71-50.34
			c15.08-15.58,32.58-27.07,49.3-32.35c17.35-5.48,31.89-3.67,40.96,5.1s11.36,23.25,6.46,40.77
			c-4.73,16.88-15.63,34.76-30.71,50.34c-15.08,15.58-32.58,27.07-49.3,32.35C531.09,313.86,524.92,314.89,519.29,314.89z
			 M588.61,186.11c-5,0-10.56,0.94-16.55,2.83c-15.78,4.99-32.4,15.93-46.79,30.81c-14.4,14.88-24.78,31.85-29.24,47.78
			c-4.28,15.3-2.56,27.67,4.85,34.84c7.41,7.17,19.83,8.48,34.98,3.7c15.78-4.99,32.4-15.93,46.79-30.81
			c14.4-14.88,24.78-31.85,29.24-47.78c4.28-15.3,2.56-27.67-4.85-34.84C602.56,188.3,596.25,186.11,588.61,186.11z"/>
	</g>
	<g>
		<path d="M537.72,332.72c-9.22,0-16.96-2.76-22.59-8.21c-9.07-8.77-11.36-23.25-6.46-40.77c4.73-16.88,15.63-34.76,30.71-50.34
			c15.08-15.58,32.58-27.07,49.3-32.35c17.34-5.48,31.89-3.67,40.96,5.1s11.36,23.25,6.46,40.77
			c-4.73,16.88-15.63,34.76-30.71,50.34c-15.08,15.58-32.58,27.07-49.3,32.35C549.52,331.69,543.35,332.72,537.72,332.72z
			 M607.04,203.94c-5,0-10.56,0.94-16.55,2.83c-15.78,4.99-32.4,15.93-46.79,30.81c-14.4,14.88-24.78,31.85-29.24,47.78
			c-4.28,15.3-2.56,27.67,4.85,34.84s19.83,8.48,34.98,3.7c15.78-4.99,32.4-15.93,46.79-30.81c14.4-14.88,24.78-31.85,29.24-47.78
			c4.28-15.3,2.56-27.67-4.85-34.84C620.99,206.13,614.68,203.94,607.04,203.94z"/>
	</g>
	<g>
		<rect x="505.01" y="300.62" transform="matrix(0.6953 -0.7187 0.7187 0.6953 -70.4914 460.5961)" width="6" height="25.64"/>
	</g>
	<g>
		<path d="M308.34,251.31c-16.58,0-31.05-12.32-31.25-12.49l3.93-4.54c0.06,0.05,6.33,5.42,14.91,8.65
			c11,4.14,20.54,2.99,28.35-3.43l3.81,4.64C321.67,249.41,314.84,251.31,308.34,251.31z"/>
	</g>
	<g>
		<g>
			<path d="M406.03,370.94c-2.51,0-4.92-0.06-7.22-0.18c-26.44-1.3-44.28-8.98-45.02-9.3l2.4-5.5c0,0,0,0,0,0l0,0
				c0.28,0.12,17.83,7.62,43.15,8.82c23.33,1.11,58.28-3.07,92.27-29.25l3.66,4.75C463.11,365.06,430.1,370.94,406.03,370.94z"/>
		</g>
		<g>
			<g>
				<polygon points="490.43,353.29 492.04,338.99 477.74,337.38 484.5,332 498.79,333.61 497.18,347.9 				"/>
			</g>
		</g>
	</g>
</g>
</svg>
