<?xml version="1.0" encoding="utf-8"?>
<!-- Generator: Adobe Illustrator 27.2.0, SVG Export Plug-In . SVG Version: 6.00 Build 0)  -->
<svg version="1.1" id="Layer_1" xmlns="http://www.w3.org/2000/svg" xmlns:xlink="http://www.w3.org/1999/xlink" x="0px" y="0px"
	 viewBox="0 0 413.29 338.51" style="enable-background:new 0 0 413.29 338.51;" xml:space="preserve">
<style type="text/css">
	.st0{fill:#FFFFFF;}
</style>
<g>
	<path d="M261.39,0c19.29,30.84,26.23,61.9,13.49,96.61c28.33-1.25,51.64,7.28,67.79,30.16c16.38,23.2,16.21,47.79,3.54,73.15
		c16.2,2.11,30.67,7.27,42.83,17.75c21.67,18.66,29.69,47.55,20.48,73.46c-9.63,27.09-35.72,46.83-64.06,47.08
		c-50.33,0.44-100.67,0.21-151.01,0.22c-41.04,0.01-82.07,0.21-123.11-0.1c-35.84-0.27-64.44-24.85-70.52-59.89
		c-4.86-28.02,12.17-58.28,40.15-71.29c3.18-1.48,6.45-2.78,9.98-4.29c-12.09-25.04-10.99-49.03,5.2-71.44
		c12.86-17.81,30.83-27.44,52.69-29.34c4.83-0.42,7.1-1.33,7.69-6.81c3.4-31.78,29.67-57.39,61.62-60.65
		c11.68-1.19,23.54-1.49,34.99-3.83C232.39,26.87,248.83,17.51,261.39,0z"/>
</g>
</svg>
