<?xml version="1.0" encoding="utf-8"?>
<!-- Generator: Adobe Illustrator 27.2.0, SVG Export Plug-In . SVG Version: 6.00 Build 0)  -->
<svg version="1.1" id="Layer_1" xmlns="http://www.w3.org/2000/svg" xmlns:xlink="http://www.w3.org/1999/xlink" x="0px" y="0px"
	 viewBox="0 0 402.69 433.72" style="enable-background:new 0 0 402.69 433.72;" xml:space="preserve">
<style type="text/css">
	.st0{fill:#FFFFFF;}
</style>
<g id="ht2VmB.tif">
	<g>
		<path d="M75.82,263.36c-10.41,1.44-20.29,3.55-30.25,3.97c-10.11,0.42-19.6-3.02-28.08-8.77c-16.1-10.94-21.53-28.13-14.44-46.31
			c6.21-15.91,17.93-26.55,33.23-33.35c23.55-10.47,48.02-18.25,73.14-23.99c1.41-0.32,2.79-0.75,4.54-1.23
			c-7.04-10.57-11.73-21.62-13.88-33.73c-3.08-17.41-1.46-34.41,4.3-51.04c0.93-2.68,1.19-4.15-1.65-6.05
			c-11.67-7.81-17.07-19.1-15.22-32.94c1.9-14.24,10.24-24.15,24.08-28.29c13.6-4.07,25.56-0.39,35.37,9.96
			c0.79,0.83,1.58,1.67,2.34,2.47c34.72-18.72,69.26-18.71,103.8-0.08c18.95-17.66,39.61-18.4,53.96-1.93
			c14.21,16.32,10.48,36.31-9.91,53.1c10.83,39.77,9.48,54.53-8.24,88.57c9.17,2.4,18.44,4.28,27.35,7.27
			c16.81,5.63,33.62,11.35,50.02,18.05c15.64,6.4,27.34,17.54,33.49,33.68c6.86,18.03,1.5,35.13-14.6,45.82
			c-16.13,10.71-33.55,11.32-51.55,5.51c-2.03-0.66-4.02-1.45-6.53-2.37c-0.4,5.85-0.9,11.37-1.04,16.9
			c-0.03,1.05,1.31,2.2,2.14,3.2c19.56,23.61,30.87,50.67,32.86,81.25c2.49,38.25-31.73,72.35-70.27,70.56
			c-25.78-1.2-45.08-13.15-58.12-35.36c-0.49-0.84-1.01-1.67-1.62-2.7c-19.79,5.17-39.49,5.22-59.46-0.04
			c-5.19,9.88-12.04,18.31-21.04,24.89c-42.63,31.12-102.67,4.71-108.44-47.74c-2.1-19.09,3.21-36.85,10.21-54.21
			c5.44-13.48,12.73-25.9,22.33-36.92c1.05-1.2,1.71-3.16,1.72-4.77C76.38,271.94,76,267.13,75.82,263.36z M201.23,201.42
			c-40.86,0.03-73.94,32.96-74.05,73.72c-0.11,40.75,33.37,74.29,74.2,74.34c40.53,0.05,73.81-33.23,74-73.98
			C275.56,234.55,242.37,201.39,201.23,201.42z M155.87,142.5c-0.02,13.08,4.53,22.25,12.79,28.94
			c17.15,13.9,44.14,14.95,62.31,2.14c12.34-8.7,18.33-20.43,14.83-35.7c-4.12-17.96-12.37-33.63-27.4-44.89
			c-10.16-7.61-21.3-8.71-31.98-1.41C167.51,104.49,158.86,123.53,155.87,142.5z M361,250.83c12.74-0.02,22.64-10,22.58-22.76
			c-0.05-12.63-10.17-22.51-22.95-22.43c-12.49,0.08-22.24,9.96-22.27,22.55C338.35,241.04,348.15,250.85,361,250.83z M41.5,205.63
			c-12.74,0.03-22.55,10-22.47,22.84c0.08,12.6,9.82,22.31,22.43,22.36c12.8,0.04,22.78-9.83,22.79-22.55
			C64.26,215.6,54.22,205.61,41.5,205.63z M326.72,370.93c-0.21-7.8-1.6-15.24-6.09-21.72c-6.27-9.05-15.59-9.04-22-0.09
			c-8.01,11.2-8.03,32.01-0.03,43.36c6.33,8.99,15.7,9.06,21.96,0.05C325.08,386.05,326.49,378.62,326.72,370.93z M98.38,370.82
			c0.1-7.79-1.38-15.19-5.93-21.66c-6.37-9.05-15.64-8.99-21.96,0.02c-7.89,11.26-8.01,31.55-0.25,42.94
			c6.48,9.51,16.12,9.56,22.53-0.03C97.06,385.69,98.52,378.44,98.38,370.82z M246.82,68.57c0-6.16-5.33-11.48-11.42-11.4
			c-5.96,0.08-11.03,5.15-11.16,11.16c-0.13,6.16,5.07,11.58,11.18,11.64C241.54,80.03,246.82,74.74,246.82,68.57z M178.26,68.71
			c0.07-6.35-4.93-11.51-11.16-11.53c-6.01-0.01-11.05,4.93-11.21,11c-0.16,6.37,4.68,11.59,10.93,11.78
			C172.96,80.15,178.19,75,178.26,68.71z"/>
		<path d="M201.35,113.63c5.11,0.43,10.26,0.61,15.31,1.38c4.17,0.64,6.71,3.39,7.2,7.75c1.01,9.05-2.13,16.42-9.56,21.58
			c-7.59,5.27-15.82,5.76-23.96,1.28c-7.93-4.37-11.86-11.42-11.89-20.44c-0.02-6.4,2.57-9.21,8.97-10.56
			c0.81-0.17,1.63-0.44,2.44-0.45c3.82-0.05,7.63-0.02,11.45-0.02C201.33,113.98,201.34,113.81,201.35,113.63z"/>
	</g>
</g>
</svg>
