<?xml version="1.0" encoding="utf-8"?>
<!-- Generator: Adobe Illustrator 27.2.0, SVG Export Plug-In . SVG Version: 6.00 Build 0)  -->
<svg version="1.1" id="Layer_1" xmlns="http://www.w3.org/2000/svg" xmlns:xlink="http://www.w3.org/1999/xlink" x="0px" y="0px"
	 viewBox="0 0 535.67 531.09" style="enable-background:new 0 0 535.67 531.09;" xml:space="preserve">
<style type="text/css">
	.st0{fill:#FFFFFF;}
</style>
<g id="PLh7KM.tif">
	<g>
		<path class="st0" d="M380.59,438.48c-9.52,41.53,3.75,72.71,36.73,86.99c30.05,13.01,64.92,2.85,83.29-24.39
			c8.76-12.98,12.8-27.46,11.41-43.01c-2.16-24.09-14.26-42.28-35.43-54.96c41.9-7.9,59.17-40.77,59.09-67.65
			c-0.11-31.8-21.58-59.01-52.99-66.28c-15.05-3.48-29.79-1.96-43.73,4.75c-21.36,10.29-33.8,27.65-38.53,50.93
			c-66.91-12.31-133.27-24.51-200.1-36.8c3.25-18.04,0.49-34.74-9.06-50.05c-9.69-15.53-23.59-25.58-41.28-30.02
			c-29.73-7.46-60.98,6.24-75.67,32.96c-9.09,16.53-10.95,34.06-5.79,52.09c5.15,17.99,16.57,31.38,33.19,41.05
			c-37.43,6.74-61.37,36.28-59.38,72.39c1.77,32.18,29.84,60.19,61.09,62.97c36.39,3.24,74.62-24.41,75.07-68.15
			C245.88,413.7,313.22,426.09,380.59,438.48z"/>
		<path d="M151,0c3.34,0.83,6.7,1.58,10.02,2.51c44.28,12.33,63.85,63.74,39.02,102.46c-0.79,1.23-1.55,2.47-2.54,4.03
			c55.34,39.35,110.43,78.52,165.67,117.79c19.76-25.08,44.91-35.66,76.09-26.84c23.82,6.75,38.77,23.29,46.48,47.82
			c-3.32-0.43-5.96-0.82-8.61-1.1c-37.19-3.96-73.35,16.13-89.47,49.88c-1.45,3.03-2.62,3.99-6.28,3.31
			c-49.74-9.29-99.53-18.33-149.3-27.45c-7.88-1.45-9.46-3.05-10.33-11.22c-3.79-35.78-34.32-67.94-70.07-74.53
			c-42.26-7.79-80.67,11.76-99.06,50.4c-0.35,0.74-0.76,1.45-1.13,2.14c-30.3-3.07-55.04-39.09-51.07-74.35
			c3.69-32.74,38.32-69.26,87.9-56.29c-6.44-9.42-10.63-19.35-12.4-30.39c-5.79-36.2,19.71-71.5,55.9-77.13
			c1.09-0.17,2.14-0.68,3.2-1.03C140.35,0,145.68,0,151,0z"/>
		<path d="M380.59,438.48c-67.36-12.4-134.71-24.79-202.1-37.19c-0.45,43.74-38.67,71.39-75.07,68.15
			c-31.26-2.78-59.32-30.79-61.09-62.97c-1.99-36.11,21.94-65.65,59.38-72.39c-16.62-9.67-28.03-23.05-33.19-41.05
			c-5.16-18.03-3.3-35.56,5.79-52.09c14.69-26.72,45.94-40.42,75.67-32.96c17.69,4.44,31.59,14.49,41.28,30.02
			c9.56,15.31,12.31,32.01,9.06,50.05c66.82,12.29,133.18,24.49,200.1,36.8c4.73-23.28,17.17-40.64,38.53-50.93
			c13.95-6.72,28.68-8.24,43.73-4.75c31.41,7.27,52.89,34.48,52.99,66.28c0.09,26.89-17.18,59.76-59.09,67.65
			c21.18,12.69,33.28,30.87,35.43,54.96c1.39,15.55-2.66,30.03-11.41,43.01c-18.37,27.24-53.24,37.4-83.29,24.39
			C384.33,511.19,371.07,480.02,380.59,438.48z"/>
	</g>
</g>
</svg>
